# xmcd CD database file
#
# Track frame offsets:
#	183
#	19633
#	38533
#	68358
#	92383
#	114558
#	132520
#	156533
#	170358
#	194333
#	206995
#
# Disc length: 3034 seconds
#
# Revision: 0
# Processed by: cddbd v1.4PL0 Copyright (c) Steve Scherf et al.
# Submitted via: Feurio! 1.65 - http://www.feurio.com
#
DISCID=8e0bd80b
DTITLE=Andy J. Forest - Snapshots
DYEAR=1900
DGENRE=Bluesrock
TTITLE0=Peter Gunn
TTITLE1=Midnight Plans
TTITLE2=I'm back
TTITLE3=Kansas City
TTITLE4=Not fade away
TTITLE5=Long ago
TTITLE6=Too late
TTITLE7=Hit and run lover
TTITLE8=Back on the street
TTITLE9=Locomotivo
TTITLE10=Night time
EXTD=
EXTT0=
EXTT1=
EXTT2=
EXTT3=
EXTT4=
EXTT5=
EXTT6=
EXTT7=
EXTT8=
EXTT9=
EXTT10=
PLAYORDER=
